<svg id="Capa_1" data-name="Capa 1" xmlns="http://www.w3.org/2000/svg" viewBox="0 0 792 1224"><defs><style>.cls-1,.cls-9{fill:#ebd436;}.cls-1,.cls-2,.cls-3,.cls-4,.cls-5,.cls-6,.cls-7,.cls-9{stroke:#010001;stroke-width:3px;}.cls-1,.cls-4,.cls-5,.cls-6,.cls-7,.cls-8{stroke-miterlimit:10;}.cls-10,.cls-2{fill:#010001;}.cls-2,.cls-3,.cls-9{stroke-linecap:round;stroke-linejoin:round;}.cls-3{fill:none;}.cls-4{fill:#c7a9b6;}.cls-5{fill:#2b58a1;}.cls-6{fill:#1a9d66;}.cls-7{fill:#bd5858;}.cls-8{fill:#f0e4c2;stroke:#1c110a;stroke-width:2px;}</style></defs><title>Mesa de trabajo 1</title><polygon class="cls-1" points="264.91 286.33 243.22 300.53 209.01 322.9 146.18 364 135.6 370.92 24.27 446.83 37.28 381.76 3.29 366.58 211.51 233.56 229.4 280.36 264.91 286.33"/><path class="cls-1" d="M603.36,224.88l-2.17,20.24-17.72,49.34a378.46,378.46,0,0,0-37.76-16.92,400.64,400.64,0,0,0-103.17-24.29c-10.32-1.06-20.47-1.73-30.39-2.06h0c-10.63-.37-21-.35-31,0A506.82,506.82,0,0,0,261.44,269.8a321.25,321.25,0,0,0-32,10.56l-17.89-46.8-3.62-14.47C379.23,130.88,603.36,224.88,603.36,224.88Z"/><polygon class="cls-1" points="753.73 406.33 758.79 469.23 671.31 402 660.43 393.38 659.84 392.93 603.12 348.14 559.99 314.07 540.64 298.8 583.47 294.46 601.19 245.12 788.43 393.32 753.73 406.33"/><path class="cls-2" d="M583.47,294.46l-42.83,4.34,5.07-21.26A378.46,378.46,0,0,1,583.47,294.46Z"/><path class="cls-3" d="M545.71,277.54l-5.07,21.26c-74.55-15.83-97.41-44.66-98.1-45.55A400.64,400.64,0,0,1,545.71,277.54Z"/><path class="cls-2" d="M264.91,286.33l-35.51-6a321.25,321.25,0,0,1,32-10.56Z"/><path class="cls-3" d="M381.09,251.19c-47.62,44.72-116.18,35.14-116.18,35.14l-3.47-16.53A506.82,506.82,0,0,1,381.09,251.19Z"/><path class="cls-4" d="M386.47,482.61a53.56,53.56,0,0,0-30.36,15.55L209,322.9l34.21-22.37s71.75,17.55,125.9-15.66Z"/><path class="cls-4" d="M603.12,348.14,451.17,500c-13.84-15.72-35.42-15.89-35.42-15.89L449,286.33c53.51,35.16,111,27.74,111,27.74Z"/><path class="cls-5" d="M706.73,681.78c-34,99.06-139.52,124-218.69,153.82s-96.51,53.14-96.51,53.14c-45-39-119.29-62.36-119.29-62.36-181.1-66.15-188.7-154-188.7-154,154-180,52.06-301.48,52.06-301.48L146.18,364l.11.1c2.34,2.65,42.84,49.22,36.16,132.55a.09.09,0,0,1,0,.1c-.29,3.58-.66,7.25-1.13,11a.39.39,0,0,1,0,.15c-.05.43-.11.85-.18,1.28-.89,5.9-2.1,12.86-3.29,19.28a1,1,0,0,1-.05.24c-8.5,40.47-28.13,87.86-66,141.54,0,0-.41,54.18,83.24,103.94,26.09,15.55,60.41,30.66,105.45,43.55,0,0,55.59,19.52,91.77,47,0,0,42-31.82,109.94-49.89,28-7.46,61.32-19.34,91.48-35.26,43-22.76,79.71-53.75,85.65-92,0,0-37.71-53.24-51.57-124,0-.2-.07-.39-.11-.59-3.36-20.3-4.86-53.81-4.86-53.81.74-37.89,10.87-77.9,37.7-115.8L671.31,402C580.94,559.61,706.73,681.78,706.73,681.78Z"/><path class="cls-3" d="M181.12,509.16c-.8,6.22-1.91,12.67-3.29,19.28C179,522,180.23,515.06,181.12,509.16Z"/><path class="cls-3" d="M182.45,496.75a83.36,83.36,0,0,1-1.13,11C181.79,504,182.16,500.33,182.45,496.75Z"/><path class="cls-6" d="M374.18,555.31S311.47,716.88,195,774.16c-83.65-49.76-83.24-103.94-83.24-103.94,37.91-53.68,57.54-101.07,66-141.54-2,10.82-3.86,20.08-3.86,20.08Z"/><path class="cls-7" d="M593.62,779.56c-30.16,15.92-63.48,27.8-91.48,35.26-67.95,18.07-109.94,49.89-109.94,49.89-36.18-27.48-91.77-47-91.77-47-45-12.89-79.36-28-105.45-43.55,116.49-57.28,179.2-218.85,179.2-218.85l60,2S450.85,673.43,593.62,779.56Z"/><path class="cls-6" d="M679.27,687.57c-5.94,38.24-42.61,69.23-85.65,92C450.85,673.43,434.19,557.29,434.19,557.29l192.49,6.29v-.05l1,.05C641.56,634.33,679.27,687.57,679.27,687.57Z"/><path class="cls-3" d="M627.7,563.58l-1-.05c-3.25-19.13-4.56-50.79-4.69-54.22l.74-.13s1.5,33.51,4.86,53.81C627.63,563.19,627.68,563.38,627.7,563.58Z"/><path class="cls-4" d="M334.05,519.12c-3.25,2.16-5.79,11.58-5.79,11.58L182.45,496.65c6.68-83.33-33.82-129.9-36.16-132.55Z"/><path class="cls-4" d="M660.43,393.38c-26.83,37.9-37,77.91-37.7,115.8l-.74.13c0-.19,0-.3,0-.3L477.2,535a27.53,27.53,0,0,0-4.71-10.84L659.84,392.93Z"/><path class="cls-3" d="M627.59,563a255.8,255.8,0,0,1-4.86-53.81"/><path class="cls-5" d="M560,314.07s-57.47,7.42-111-27.74c-33.79-18.85-36.78-34.66-36.85-35.14,9.92.33,20.07,1,30.39,2.06.69.89,23.55,29.72,98.1,45.55Z"/><path class="cls-1" d="M627.59,563c0,.2.09.39.11.59l-1-.05-192.49-6.24-60-2-200.26-6.55s1.87-9.26,3.86-20.08a1,1,0,0,0,.05-.24c1.38-6.61,2.49-13.06,3.29-19.28.07-.43.13-.85.18-1.28a.39.39,0,0,0,0-.15,83.36,83.36,0,0,0,1.13-11,.09.09,0,0,0,0-.1L328.26,530.7s2.54-9.42,5.79-11.58l-187.76-155-.11-.1L209,322.9l147.1,175.26a53.56,53.56,0,0,1,30.36-15.55L369.12,284.87s30.71-9.91,43-33.68h0c.07.48,3.06,16.29,36.85,35.14L415.75,484.07s21.58.17,35.42,15.89l152-151.82,56.72,44.79L472.49,524.19A27.53,27.53,0,0,1,477.2,535L622,509.31l.74-.13S624.23,542.69,627.59,563Z"/><line class="cls-3" x1="412.13" y1="251.19" x2="412.13" y2="251.17"/><path class="cls-5" d="M412.11,251.19c-12.28,23.77-43,33.68-43,33.68-54.15,33.21-125.9,15.66-125.9,15.66l21.69-14.2s68.56,9.58,116.18-35.14C391.14,250.84,401.48,250.82,412.11,251.19Z"/><path class="cls-8" d="M391.29,861.45s-20.61-18.8-80.25-41.21c0,0,19.87-6.87,17-59.64,0,0,6.51-15.92,17.35-17,0,0,2.89-6.51-1.8-7.23H328.65s-.63-28.56,13.84-31.45c1.54-.3,3-.52,4.34-.67a2.85,2.85,0,0,1,.41,0c11.06-1.13,15.85,2.51,15.85,2.51s7.31,1.48,10.35,13.32a50.29,50.29,0,0,1,1.21,14.53L358.75,736l.72,7.59s25.66,8.67,23.86,40.49S391.29,861.45,391.29,861.45Z"/><path class="cls-8" d="M386.58,708.55s-3.53,10.71-13.14,11.49c0,0-2.37-19.13-26.2-15.83a2.85,2.85,0,0,0-.41,0s-22.78-29.69,0-39.08c21.32-8.81,26,1.3,27.69,6.31.35,1,.5,1.63.5,1.63V702.4a6.15,6.15,0,0,0,6.15,6.15Z"/><path class="cls-8" d="M433.21,773.24c-8.3,45.55-3.62,69-3.62,69s-26.83,15.92-35.83,23.86l-2.47-4.69s-9.76-45.54-8-77.36-23.86-40.49-23.86-40.49l-.72-7.59,15.9-1.44A50.29,50.29,0,0,0,373.44,720c9.61-.78,13.14-11.49,13.14-11.49H380.1a5.09,5.09,0,0,1-5.08-5.09V673.11s22.78-21.67,38.67-4.69a18.81,18.81,0,0,1,2.15,3.43c2.53,5,6.07,15.62,3.25,33.21a4.54,4.54,0,0,1-4.47,3.83h-6s1.08,11.22,22.4,19.52C431,728.41,441.52,727.7,433.21,773.24Z"/><path class="cls-8" d="M471.64,826c-8.92,3-26.93,9.09-37.1,13.78a4,4,0,0,1-5.7-3.32c-.87-9.57-1.53-30.8,4.37-63.17,8.31-45.54-2.17-44.83-2.17-44.83-10.87-4.23-16.48-9.23-19.37-13.1a4,4,0,0,1,3.29-6.42H415a4.07,4.07,0,0,0,4-3.43c2.52-15.33.23-25.44-2.08-31.16a4,4,0,0,1,1.3-4.7c4.5-3.51,15.07-8.85,29.78,2.25,19.89,15-1.43,37.41-1.43,37.41l-1.91,1.9a4.05,4.05,0,0,0,1.31,6.6c4.34,1.91,9.41,6.58,10.51,17.9,1.82,18.58,8.17,68.05,17.36,84.46A4,4,0,0,1,471.64,826Z"/><path class="cls-9" d="M83.54,764s40.89,92,181.37,109.35,126.38,68,126.38,68-12.84-53.68,141.15-65.6c0,0,128.51-17.16,167-101.57,0,0,53.69,73.37-29.82,126s-115,48.8-164.83,58.56-113.5,58-113.5,58S340,963,268.38,957.6,103.67,896.33,83.54,871.39,50.53,806.87,83.54,764Z"/><path class="cls-10" d="M66.26,387.5,50.72,364.23a7.87,7.87,0,0,1-1.37-3,1.59,1.59,0,0,1,.53-1.67,1.61,1.61,0,0,1,1.77.12,7.61,7.61,0,0,1,2.27,2.43l15.54,23.26a7.83,7.83,0,0,1,1.38,3,1.42,1.42,0,0,1-2.31,1.53A7.83,7.83,0,0,1,66.26,387.5Z"/><path class="cls-10" d="M61.63,356.89,79.39,370.2,67.66,352.63a7.81,7.81,0,0,1-1.32-2.83,1.46,1.46,0,0,1,.48-1.57,1.47,1.47,0,0,1,1.66.14,7.67,7.67,0,0,1,2.12,2.3l15.51,23.22q2.6,3.9.87,5a1.63,1.63,0,0,1-.93.29,2.57,2.57,0,0,1-1.13-.31,9,9,0,0,1-1.35-.8l-1.44-1-17.48-13.2,11.56,17.31A7.38,7.38,0,0,1,77.5,384a1.33,1.33,0,0,1-2.17,1.44,7.41,7.41,0,0,1-2.11-2.28L58,360.39A14.57,14.57,0,0,1,56.66,358a4.21,4.21,0,0,1-.32-1.94,1.61,1.61,0,0,1,.64-1.25,1.32,1.32,0,0,1,.91-.23,2.81,2.81,0,0,1,1,.34,10.1,10.1,0,0,1,1.24.84Z"/><path class="cls-10" d="M97.93,358.08a17.69,17.69,0,0,1,2.48,5.3,9.08,9.08,0,0,1,.07,4.79A6.38,6.38,0,0,1,93,372.55a10.91,10.91,0,0,1-3.87-2,14.49,14.49,0,0,1-3.25-3.41A4.85,4.85,0,0,1,85,365a1.44,1.44,0,0,1,.51-1.46,1.19,1.19,0,0,1,1.26,0,7.4,7.4,0,0,1,1.79,1.4,21.8,21.8,0,0,0,2.23,1.92,5,5,0,0,0,2,.9,2.73,2.73,0,0,0,2.07-.5,3.26,3.26,0,0,0,1.48-2.78,7.15,7.15,0,0,0-3.25-5.75,4.2,4.2,0,0,0-2.17-.57,16.91,16.91,0,0,0-2.71.32,13.16,13.16,0,0,1-4,.16,8.24,8.24,0,0,1-3.64-1.5,14.33,14.33,0,0,1-3.53-3.84,14.79,14.79,0,0,1-2.18-4.8,7.61,7.61,0,0,1,.11-4.28,6.1,6.1,0,0,1,2.48-3.13,5.57,5.57,0,0,1,3-1,6.83,6.83,0,0,1,3,.62A10.09,10.09,0,0,1,86,342.4a11.17,11.17,0,0,1,1.92,2.18,5.4,5.4,0,0,1,.89,2.19c.11.75,0,1.26-.44,1.53a1.08,1.08,0,0,1-1.17,0,10.36,10.36,0,0,1-1.75-1.27,11,11,0,0,0-2.77-1.92,2.58,2.58,0,0,0-2.56.36,2.83,2.83,0,0,0-1.32,2.35,4.76,4.76,0,0,0,.88,2.95A4.81,4.81,0,0,0,81,352.17a4,4,0,0,0,1.45.64,5.34,5.34,0,0,0,1.4.11c.42,0,1.1-.12,2-.25a19.18,19.18,0,0,1,3.27-.33,8.51,8.51,0,0,1,3,.49A9.05,9.05,0,0,1,95,354.58,17.59,17.59,0,0,1,97.93,358.08Z"/><path class="cls-10" d="M100.37,333.7,96.88,336l14.33,21.46a7.84,7.84,0,0,1,1.4,3,1.42,1.42,0,0,1-2.3,1.53A7.72,7.72,0,0,1,108,359.6L93.7,338.15l-3.48,2.33a1.58,1.58,0,0,1-1.67.13,5,5,0,0,1-2.39-3.6,1.61,1.61,0,0,1,.76-1.47l10.15-6.78a1.62,1.62,0,0,1,1.69-.14,4.18,4.18,0,0,1,1.6,1.53,4,4,0,0,1,.78,2.05A1.63,1.63,0,0,1,100.37,333.7Z"/><path class="cls-10" d="M118.35,352.71l-15.53-23.27a7.77,7.77,0,0,1-1.38-3,1.59,1.59,0,0,1,.53-1.67,1.61,1.61,0,0,1,1.77.12,7.61,7.61,0,0,1,2.27,2.43l15.54,23.26a7.68,7.68,0,0,1,1.38,3,1.42,1.42,0,0,1-2.31,1.53A7.83,7.83,0,0,1,118.35,352.71Z"/><path class="cls-10" d="M121,319.9l-3.48,2.32,14.33,21.46a7.79,7.79,0,0,1,1.39,3,1.56,1.56,0,0,1-.54,1.66,1.59,1.59,0,0,1-1.76-.13,7.84,7.84,0,0,1-2.28-2.45l-14.33-21.45-3.48,2.33a1.58,1.58,0,0,1-1.67.13,4.23,4.23,0,0,1-1.59-1.51,4.11,4.11,0,0,1-.79-2.09,1.61,1.61,0,0,1,.75-1.47L117.74,315a1.6,1.6,0,0,1,1.68-.14,4.18,4.18,0,0,1,1.6,1.53,4.07,4.07,0,0,1,.79,2A1.64,1.64,0,0,1,121,319.9Z"/><path class="cls-10" d="M132.86,329.91l-9.49-14.2a7.77,7.77,0,0,1-1.38-3,1.44,1.44,0,0,1,2.32-1.55,7.7,7.7,0,0,1,2.25,2.43l9.7,14.52a29.25,29.25,0,0,0,3.07,3.95,6.6,6.6,0,0,0,2.77,1.87,3.07,3.07,0,0,0,2.72-.49,3.25,3.25,0,0,0,1.4-3.63,19,19,0,0,0-3-6.17L133.44,309a8,8,0,0,1-1.4-3,1.56,1.56,0,0,1,.56-1.66,1.61,1.61,0,0,1,1.76.11,7.55,7.55,0,0,1,2.27,2.44l9.49,14.2a46.24,46.24,0,0,1,3.5,6,14.31,14.31,0,0,1,1.36,5,7.13,7.13,0,0,1-.55,3.51,6.17,6.17,0,0,1-2.21,2.47,7.52,7.52,0,0,1-3.62,1.35,6.53,6.53,0,0,1-3.66-.85,15,15,0,0,1-3.86-3.13A43.33,43.33,0,0,1,132.86,329.91Z"/><path class="cls-10" d="M164.93,312.66a17.16,17.16,0,0,1,2.65,7.3,9.12,9.12,0,0,1-.32,3.93A5.33,5.33,0,0,1,165,326.8a6.72,6.72,0,0,1-2.57,1.07,6.26,6.26,0,0,1-2.77-.14,11.51,11.51,0,0,1-3.18-1.44,23.09,23.09,0,0,1-3.15-2.4,31.13,31.13,0,0,1-3.11-3.24,44.33,44.33,0,0,1-3-4,40.87,40.87,0,0,1-3.71-6.76,21.81,21.81,0,0,1-1.63-5.88,10.44,10.44,0,0,1,.38-4.67,5.71,5.71,0,0,1,6.62-3.87,11.26,11.26,0,0,1,4.65,2,13.78,13.78,0,0,1,3.46,3.44,4.85,4.85,0,0,1,.82,2.08c.09.69,0,1.16-.41,1.41a1.21,1.21,0,0,1-1.28.07,11.7,11.7,0,0,1-1.94-1.42,11.66,11.66,0,0,0-3.66-2.3,3.07,3.07,0,0,0-2.81.3c-1.31.87-1.73,2.51-1.26,4.89a25.71,25.71,0,0,0,4.15,8.74,32.06,32.06,0,0,0,4.34,5.39,9.75,9.75,0,0,0,3.74,2.43,3.31,3.31,0,0,0,4.45-3.18,11.35,11.35,0,0,0-1.08-4.72,11.16,11.16,0,0,1-.76-2.24,1.21,1.21,0,0,1,.47-1.38,1.38,1.38,0,0,1,1.48.09A4.55,4.55,0,0,1,164.93,312.66Z"/><path class="cls-10" d="M172.06,316.84l-15.54-23.27a7.77,7.77,0,0,1-1.38-3,1.43,1.43,0,0,1,2.3-1.55,7.61,7.61,0,0,1,2.27,2.43l15.54,23.27a7.79,7.79,0,0,1,1.39,3,1.61,1.61,0,0,1-.56,1.69,1.59,1.59,0,0,1-1.75-.16A7.72,7.72,0,0,1,172.06,316.84Z"/><path class="cls-10" d="M167.8,280.79a6.73,6.73,0,0,1,5.46-.94,14.48,14.48,0,0,1,6.2,3.52,38.06,38.06,0,0,1,6.29,7.46,43.59,43.59,0,0,1,3.66,6.56,22.42,22.42,0,0,1,1.76,5.84,10.28,10.28,0,0,1-.33,4.77,6.65,6.65,0,0,1-6.64,4.39,10.29,10.29,0,0,1-4.54-1.53,22.42,22.42,0,0,1-4.75-3.9,43.72,43.72,0,0,1-4.63-5.85,40.7,40.7,0,0,1-3.65-6.6,22,22,0,0,1-1.72-5.84,10,10,0,0,1,.37-4.66A6.4,6.4,0,0,1,167.8,280.79ZM182.48,293a29.48,29.48,0,0,0-4.31-5.24,10.18,10.18,0,0,0-4-2.53,3.67,3.67,0,0,0-3.19.37,3.24,3.24,0,0,0-1.32,1.86,6.53,6.53,0,0,0-.09,2.89,16.08,16.08,0,0,0,1.28,3.92,32.19,32.19,0,0,0,2.66,4.72,34.74,34.74,0,0,0,3.38,4.33A16.1,16.1,0,0,0,180.1,306a6.8,6.8,0,0,0,2.76,1.06,3.22,3.22,0,0,0,2.21-.51,3.6,3.6,0,0,0,1.48-2.65,10.08,10.08,0,0,0-.73-4.64A29,29,0,0,0,182.48,293Zm-18.22-20.19,1.45-1q.54-.36.75-.06a8.13,8.13,0,0,1,.27,1.71c.11,1,.19,2,.25,3a8.52,8.52,0,0,1,0,1.83,2.31,2.31,0,0,1-.92,1.47.52.52,0,0,1-.8-.2,5.69,5.69,0,0,1-.51-1.37l-.65-2a7.72,7.72,0,0,1-.52-2.36A1.35,1.35,0,0,1,164.26,272.76Z"/><path class="cls-10" d="M184.87,274.58l17.76,13.31L190.9,270.32a7.81,7.81,0,0,1-1.32-2.83,1.32,1.32,0,0,1,2.14-1.43,7.54,7.54,0,0,1,2.12,2.3l15.51,23.22q2.6,3.9.88,5a1.67,1.67,0,0,1-.93.29,2.61,2.61,0,0,1-1.14-.31,10.09,10.09,0,0,1-1.35-.8c-.47-.34-.95-.68-1.43-1l-17.48-13.2,11.55,17.31a7.08,7.08,0,0,1,1.29,2.83,1.33,1.33,0,0,1-2.17,1.44,7.53,7.53,0,0,1-2.11-2.28l-15.21-22.78a14,14,0,0,1-1.35-2.39,4.19,4.19,0,0,1-.31-1.94,1.6,1.6,0,0,1,.63-1.25,1.34,1.34,0,0,1,.92-.23,2.83,2.83,0,0,1,1,.34,9.39,9.39,0,0,1,1.24.84Z"/><path class="cls-10" d="M335.53,205.48h-10v8.88h9.2a1.72,1.72,0,0,1,1.52.76,3.54,3.54,0,0,1,.5,2,3.8,3.8,0,0,1-.49,2,1.68,1.68,0,0,1-1.53.77h-9.2v10.3h10.34a1.77,1.77,0,0,1,1.57.8,3.79,3.79,0,0,1,.53,2.14,3.71,3.71,0,0,1-.53,2.09,1.77,1.77,0,0,1-1.57.8H323.82a2.24,2.24,0,0,1-2.08-1.06,6.93,6.93,0,0,1-.64-3.44V204.31a9.71,9.71,0,0,1,.28-2.58,2.68,2.68,0,0,1,.89-1.45,2.48,2.48,0,0,1,1.55-.46h11.71a1.76,1.76,0,0,1,1.58.78,3.67,3.67,0,0,1,.52,2,3.72,3.72,0,0,1-.52,2.06A1.76,1.76,0,0,1,335.53,205.48Z"/><path class="cls-10" d="M344.26,199.82H350a9.77,9.77,0,0,1,3.87.69,7,7,0,0,1,2.93,2.6q3.42,4.83,3.42,14.71a47.06,47.06,0,0,1-.34,6,26.39,26.39,0,0,1-1.06,4.85,16.48,16.48,0,0,1-1.84,3.87,8.76,8.76,0,0,1-1.93,2.1,6.76,6.76,0,0,1-2.25,1.11,10.66,10.66,0,0,1-2.71.32h-5.78a2.44,2.44,0,0,1-1.82-.61,3,3,0,0,1-.8-1.7,16.92,16.92,0,0,1-.19-2.85V204.31a6.89,6.89,0,0,1,.64-3.43A2.26,2.26,0,0,1,344.26,199.82Zm1.72,5.8v24.57h3.36a11.14,11.14,0,0,0,1.73-.1,3.67,3.67,0,0,0,1.3-.49,3.85,3.85,0,0,0,1.17-1.11q2.22-3.12,2.22-10.72a24.79,24.79,0,0,0-1-8c-.66-1.78-1.46-2.91-2.42-3.4a7.62,7.62,0,0,0-3.46-.73Z"/><path class="cls-10" d="M364.19,221.06V203.65a7.15,7.15,0,0,1,.61-3.34,1.79,1.79,0,0,1,1.59-1.11,1.82,1.82,0,0,1,1.63,1.11,7.15,7.15,0,0,1,.61,3.34v17.8a26.51,26.51,0,0,0,.41,5.07,6.29,6.29,0,0,0,1.46,3.16,4.19,4.19,0,0,0,6.6-1.16,16.93,16.93,0,0,0,1.08-6.92V203.65a7.27,7.27,0,0,1,.59-3.35,1.8,1.8,0,0,1,1.6-1.1,1.84,1.84,0,0,1,1.62,1.1,7,7,0,0,1,.62,3.35v17.41a41.12,41.12,0,0,1-.5,7.08,13.23,13.23,0,0,1-1.89,5,7.57,7.57,0,0,1-2.78,2.67,7.77,7.77,0,0,1-3.7.84,9.73,9.73,0,0,1-4.35-.91,7.16,7.16,0,0,1-3-2.79,14.14,14.14,0,0,1-1.69-4.84A39.6,39.6,0,0,1,364.19,221.06Z"/><path class="cls-10" d="M406.07,224.59a15.29,15.29,0,0,1-.51,3.74,16.1,16.1,0,0,1-1.63,3.95,9.53,9.53,0,0,1-2.82,3.15,6.83,6.83,0,0,1-4,1.21,8.84,8.84,0,0,1-3.16-.55,7.31,7.31,0,0,1-2.57-1.69,11.5,11.5,0,0,1-2.13-3,21.87,21.87,0,0,1-1.48-3.82,29.11,29.11,0,0,1-.92-4.5,39.21,39.21,0,0,1-.31-5.09,36.45,36.45,0,0,1,.77-7.83,20.69,20.69,0,0,1,2.21-5.91,10.91,10.91,0,0,1,3.36-3.74A7.24,7.24,0,0,1,397,199.2a7.12,7.12,0,0,1,4.73,1.76,11.51,11.51,0,0,1,3.19,4.33,12.54,12.54,0,0,1,1.1,4.88,4.45,4.45,0,0,1-.54,2.22,1.54,1.54,0,0,1-1.3,1,1.41,1.41,0,0,1-1.27-.66,10.59,10.59,0,0,1-.95-2.3,11.49,11.49,0,0,0-2-4A3.73,3.73,0,0,0,397,205q-2.75,0-4.36,3.43T391,218.22a28.8,28.8,0,0,0,.72,7,9.42,9.42,0,0,0,2,4.19,4.12,4.12,0,0,0,3.08,1.38,4.06,4.06,0,0,0,3.23-1.57,10.76,10.76,0,0,0,2-4.6,10.43,10.43,0,0,1,.7-2.34,1.4,1.4,0,0,1,1.34-.9,1.63,1.63,0,0,1,1.36.91A4.24,4.24,0,0,1,406.07,224.59Z"/><path class="cls-10" d="M424.08,231.92,423,227.38h-8.91l-1,4.64a21.83,21.83,0,0,1-1.05,3.66,1.47,1.47,0,0,1-1.42,1,1.81,1.81,0,0,1-1.48-1,4.24,4.24,0,0,1-.64-2.29,8.09,8.09,0,0,1,.15-1.53c.1-.53.26-1.26.49-2.2l5.61-23.51q.24-1,.57-2.43a17.91,17.91,0,0,1,.72-2.36,4.28,4.28,0,0,1,1-1.52,2.17,2.17,0,0,1,1.53-.58,2.22,2.22,0,0,1,1.55.58,4.43,4.43,0,0,1,1,1.5,13.64,13.64,0,0,1,.64,2c.17.7.4,1.63.67,2.8l5.72,23.36a17.9,17.9,0,0,1,.67,3.88,4.41,4.41,0,0,1-.63,2.31,1.83,1.83,0,0,1-1.53,1,1.4,1.4,0,0,1-.9-.31,2.51,2.51,0,0,1-.63-.84,10.72,10.72,0,0,1-.55-1.63C424.38,233.12,424.22,232.48,424.08,231.92Zm-8.79-10h6.55l-3.31-14.94Z"/><path class="cls-10" d="M443.6,205.87h-4.84v26.3a7.18,7.18,0,0,1-.61,3.37,1.82,1.82,0,0,1-1.58,1.1,1.84,1.84,0,0,1-1.61-1.12,7.12,7.12,0,0,1-.62-3.35v-26.3H429.5a1.9,1.9,0,0,1-1.69-.83,3.85,3.85,0,0,1-.55-2.18,3.8,3.8,0,0,1,.57-2.22,1.91,1.91,0,0,1,1.67-.82h14.1a1.93,1.93,0,0,1,1.72.84,3.92,3.92,0,0,1,.56,2.2,3.77,3.77,0,0,1-.57,2.18A1.94,1.94,0,0,1,443.6,205.87Z"/><path class="cls-10" d="M448.68,232.17V203.65a7.13,7.13,0,0,1,.62-3.34,1.8,1.8,0,0,1,1.58-1.11,1.84,1.84,0,0,1,1.62,1.1,7,7,0,0,1,.62,3.35v28.52a7,7,0,0,1-.62,3.35,1.7,1.7,0,0,1-3.2,0A7.13,7.13,0,0,1,448.68,232.17Z"/><path class="cls-10" d="M461.32,204l5,24.27,5-24.44c.26-1.29.45-2.18.58-2.68a3.81,3.81,0,0,1,.65-1.36,1.43,1.43,0,0,1,1.22-.61,1.49,1.49,0,0,1,1.05.47,3.24,3.24,0,0,1,.77,1.25,4.76,4.76,0,0,1,.27,1.57,8.31,8.31,0,0,1-.09,1.17c-.06.42-.13.83-.22,1.24s-.18.81-.27,1.24l-5.3,23.66q-.29,1.35-.57,2.58a14.35,14.35,0,0,1-.66,2.14,4.27,4.27,0,0,1-1,1.52,2.11,2.11,0,0,1-1.52.6,2.15,2.15,0,0,1-1.52-.59,4.2,4.2,0,0,1-1-1.53,15.44,15.44,0,0,1-.66-2.16c-.19-.8-.38-1.66-.57-2.56l-5.21-23.46c-.09-.43-.19-.85-.28-1.26s-.17-.86-.24-1.33a10.27,10.27,0,0,1-.1-1.21,4.43,4.43,0,0,1,.62-2.3,1.77,1.77,0,0,1,1.53-1,1.65,1.65,0,0,1,1.61,1.15A21.12,21.12,0,0,1,461.32,204Z"/><path class="cls-10" d="M491.6,231.92l-1.05-4.54h-8.91l-1,4.64a21.83,21.83,0,0,1-1.05,3.66,1.47,1.47,0,0,1-1.42,1,1.81,1.81,0,0,1-1.48-1,4.24,4.24,0,0,1-.64-2.29,8.09,8.09,0,0,1,.15-1.53c.1-.53.27-1.26.49-2.2l5.61-23.51q.24-1,.57-2.43a17.91,17.91,0,0,1,.72-2.36,4.28,4.28,0,0,1,1-1.52,2.17,2.17,0,0,1,1.53-.58,2.2,2.2,0,0,1,1.55.58,4.29,4.29,0,0,1,1,1.5,13.64,13.64,0,0,1,.64,2c.18.7.4,1.63.67,2.8l5.72,23.36a17.9,17.9,0,0,1,.67,3.88,4.41,4.41,0,0,1-.63,2.31,1.83,1.83,0,0,1-1.53,1,1.4,1.4,0,0,1-.9-.31,2.51,2.51,0,0,1-.63-.84,9.87,9.87,0,0,1-.54-1.63C491.9,233.12,491.73,232.48,491.6,231.92Zm-8.79-10h6.54l-3.3-14.94Z"/><path class="cls-10" d="M605.66,287.93l-3.31-2.5-14,18.45a6.43,6.43,0,0,1-2.2,2,1.44,1.44,0,0,1-2.17-1.65,6.29,6.29,0,0,1,1.36-2.68l14-18.45-3.3-2.5a1.59,1.59,0,0,1-.71-1.45,3.45,3.45,0,0,1,.78-1.82,3.38,3.38,0,0,1,1.57-1.26,1.59,1.59,0,0,1,1.57.29l9.63,7.28a1.65,1.65,0,0,1,.72,1.48,4.07,4.07,0,0,1-2.33,3.07A1.64,1.64,0,0,1,605.66,287.93Z"/><path class="cls-10" d="M601,301.13l9.25-12.21a6.48,6.48,0,0,1,2.18-2,1.55,1.55,0,0,1,1.68,0,1.59,1.59,0,0,1,.53,1.63,6.52,6.52,0,0,1-1.36,2.65l-9.46,12.49a23.91,23.91,0,0,0-2.41,3.77,5.66,5.66,0,0,0-.69,3,3.55,3.55,0,0,0,5.13,2.6,15.56,15.56,0,0,0,4.41-4.3l9.53-12.6a6.63,6.63,0,0,1,2.19-2,1.51,1.51,0,0,1,1.67.06,1.58,1.58,0,0,1,.53,1.61,6.35,6.35,0,0,1-1.36,2.66l-9.24,12.22a39.39,39.39,0,0,1-4.11,4.71,11.76,11.76,0,0,1-3.94,2.52,6.06,6.06,0,0,1-6.29-.89,8.22,8.22,0,0,1-2.49-2.88,6.16,6.16,0,0,1-.54-3.49,12.64,12.64,0,0,1,1.42-4.27A36.52,36.52,0,0,1,601,301.13Z"/><path class="cls-10" d="M629,303.16l-14,18.48,6.14,4.65a1.57,1.57,0,0,1,.66,1.46,4,4,0,0,1-2.29,3,1.61,1.61,0,0,1-1.57-.27L610.65,325a1.89,1.89,0,0,1-.86-1.82,6.2,6.2,0,0,1,1.39-2.74L626,300.86a6.55,6.55,0,0,1,2.19-2,1.53,1.53,0,0,1,1.67,0,1.59,1.59,0,0,1,.53,1.61A6.32,6.32,0,0,1,629,303.16Z"/><path class="cls-10" d="M623.63,330.56l15.15-20a6.45,6.45,0,0,1,2.19-2,1.53,1.53,0,0,1,1.67,0,1.57,1.57,0,0,1,.52,1.61,6.31,6.31,0,0,1-1.35,2.66l-15.15,20a6.37,6.37,0,0,1-2.21,2,1.44,1.44,0,0,1-2.17-1.66A6.29,6.29,0,0,1,623.63,330.56Z"/><path class="cls-10" d="M654.13,317.27a6.94,6.94,0,0,1,2.78,4.62,12.66,12.66,0,0,1-.93,6.47,31.52,31.52,0,0,1-4.39,7.59,35.55,35.55,0,0,1-4.52,5,18.82,18.82,0,0,1-4.57,3.11,9.16,9.16,0,0,1-4.35,1,7.07,7.07,0,0,1-6.25-4.77,9.41,9.41,0,0,1-.27-4.46,18.94,18.94,0,0,1,1.79-5.28,34.72,34.72,0,0,1,3.55-5.67,34,34,0,0,1,4.56-5,18.43,18.43,0,0,1,4.58-3.07,9.24,9.24,0,0,1,4.27-.9A6.63,6.63,0,0,1,654.13,317.27Zm-5.59,16.32a24.38,24.38,0,0,0,3.13-5.24,8.78,8.78,0,0,0,.83-4.24,3.81,3.81,0,0,0-1.46-2.75,3.43,3.43,0,0,0-2.12-.69,5.9,5.9,0,0,0-2.61.68,13.63,13.63,0,0,0-3,2.17,27,27,0,0,0-3.25,3.63,27.36,27.36,0,0,0-2.64,4.16,13.32,13.32,0,0,0-1.29,3.59,6.08,6.08,0,0,0,0,2.74,3.41,3.41,0,0,0,1.23,1.83,3.7,3.7,0,0,0,2.89.63,8.76,8.76,0,0,0,3.86-1.87A24.26,24.26,0,0,0,648.54,333.59Z"/><path class="cls-10" d="M675.89,333.74a7,7,0,0,1,2.78,4.63,12.64,12.64,0,0,1-.93,6.46,31.52,31.52,0,0,1-4.39,7.59,35.64,35.64,0,0,1-4.53,5,18.87,18.87,0,0,1-4.56,3.11,9.26,9.26,0,0,1-4.35,1,7.1,7.1,0,0,1-6.26-4.77,9.54,9.54,0,0,1-.26-4.46,18.89,18.89,0,0,1,1.79-5.27,37.29,37.29,0,0,1,8.11-10.68,18.43,18.43,0,0,1,4.58-3.07,9.24,9.24,0,0,1,4.27-.9A6.78,6.78,0,0,1,675.89,333.74Zm-5.59,16.32a24.34,24.34,0,0,0,3.13-5.23,8.8,8.8,0,0,0,.83-4.24,3.79,3.79,0,0,0-1.47-2.76,3.38,3.38,0,0,0-2.11-.69,5.92,5.92,0,0,0-2.61.69,13.55,13.55,0,0,0-3,2.16,27,27,0,0,0-3.25,3.63,27.86,27.86,0,0,0-2.64,4.16,13.44,13.44,0,0,0-1.29,3.59,6.08,6.08,0,0,0,0,2.74,3.44,3.44,0,0,0,1.23,1.84,3.78,3.78,0,0,0,2.89.63,8.83,8.83,0,0,0,3.85-1.88A23.69,23.69,0,0,0,670.3,350.06Z"/><path class="cls-10" d="M683.42,368.09a14.41,14.41,0,0,1-3.83,3.61,8,8,0,0,1-4.22,1.33,6.4,6.4,0,0,1-4-1.38,6.23,6.23,0,0,1-2.57-4.18,9.26,9.26,0,0,1,.41-4,11.74,11.74,0,0,1,1.87-3.8,3.88,3.88,0,0,1,1.6-1.32,1.39,1.39,0,0,1,1.47.07,1.21,1.21,0,0,1,.42,1.14,6.31,6.31,0,0,1-.6,2,17.61,17.61,0,0,0-.92,2.49,4.34,4.34,0,0,0-.08,2,2.88,2.88,0,0,0,1.18,1.72,3.31,3.31,0,0,0,3,.59,5.22,5.22,0,0,0,2.86-2,5.14,5.14,0,0,0,1.1-2.39,4.08,4.08,0,0,0-.26-2.1,17.73,17.73,0,0,0-1.26-2.34A13.42,13.42,0,0,1,678,356a7.38,7.38,0,0,1,.05-3.64,11.6,11.6,0,0,1,2.15-4.16,12.21,12.21,0,0,1,3.49-3.22,6.91,6.91,0,0,1,3.84-1,6.44,6.44,0,0,1,3.66,1.4,5.89,5.89,0,0,1,1.95,2.38,6.53,6.53,0,0,1,.5,2.8,8.92,8.92,0,0,1-.56,2.76,9.18,9.18,0,0,1-1.26,2.29,4.38,4.38,0,0,1-1.63,1.36,1.39,1.39,0,0,1-1.51,0,1.09,1.09,0,0,1-.46-1,8.47,8.47,0,0,1,.51-1.89,9.55,9.55,0,0,0,.72-3,2.63,2.63,0,0,0-1.23-2.19,2.92,2.92,0,0,0-2.55-.56,4,4,0,0,0-2.31,1.56,4.09,4.09,0,0,0-.76,1.5,3.65,3.65,0,0,0,0,1.47,4.69,4.69,0,0,0,.39,1.28c.18.37.5.95,1,1.75a20.64,20.64,0,0,1,1.45,2.84,8.23,8.23,0,0,1,.63,2.8,7.86,7.86,0,0,1-.54,3A14,14,0,0,1,683.42,368.09Z"/><path class="cls-10" d="M693.51,372.16l-2.77-2.1-5.44,7.19a6.36,6.36,0,0,1-2.2,2,1.44,1.44,0,0,1-2.19-1.64,6.35,6.35,0,0,1,1.33-2.63l14.82-19.58a6.1,6.1,0,0,1,2.3-2.08,2,2,0,0,1,2,.38l3.88,2.94a7.78,7.78,0,0,1,2.31,2.46,4.89,4.89,0,0,1,.5,2.64,9.64,9.64,0,0,1-.85,3.23,17.53,17.53,0,0,1-2.13,3.53c-2,2.59-3.91,4.19-5.86,4.82A6,6,0,0,1,693.51,372.16Zm8.08-12.2-2-1.54-5.87,7.76,2,1.54a4.6,4.6,0,0,0,2.08,1,3.11,3.11,0,0,0,2-.41,7.34,7.34,0,0,0,2.09-2,7,7,0,0,0,1.49-3.17C703.56,362,703,361,701.59,360Z"/><path class="cls-10" d="M696.32,385.59l15.15-20a6.27,6.27,0,0,1,2.19-2,1.53,1.53,0,0,1,1.67,0,1.57,1.57,0,0,1,.52,1.61,6.43,6.43,0,0,1-1.35,2.66l-15.15,20a6.47,6.47,0,0,1-2.21,2,1.44,1.44,0,0,1-2.17-1.66A6.29,6.29,0,0,1,696.32,385.59Z"/><path class="cls-10" d="M721.85,373.39l-5.51,19.38,11.44-15.11a6.33,6.33,0,0,1,2-1.93,1.35,1.35,0,0,1,2,1.54,6.3,6.3,0,0,1-1.3,2.5l-15.12,20c-1.69,2.23-3.07,2.93-4.16,2.11a1.71,1.71,0,0,1-.58-.76,2.43,2.43,0,0,1-.14-1.09,8.1,8.1,0,0,1,.24-1.42c.13-.51.27-1,.41-1.55l5.52-19.1-11.27,14.88a5.93,5.93,0,0,1-2.06,1.9,1.35,1.35,0,0,1-2-1.56,6.06,6.06,0,0,1,1.27-2.48l14.83-19.6a11.34,11.34,0,0,1,1.65-1.83,3.75,3.75,0,0,1,1.6-.79,1.67,1.67,0,0,1,1.35.24,1.4,1.4,0,0,1,.52.76,2.65,2.65,0,0,1,.06,1,9.86,9.86,0,0,1-.3,1.33Z"/><path class="cls-10" d="M728,409.32l1.7-3.73-6.08-4.6-3.18,2.71a20.79,20.79,0,0,1-2.66,2,1.26,1.26,0,0,1-1.47-.07,1.55,1.55,0,0,1-.48-1.47,3.77,3.77,0,0,1,.79-1.95,7,7,0,0,1,.91-1q.53-.48,1.5-1.29l16.31-13.6,1.69-1.41a14,14,0,0,1,1.74-1.28,3.73,3.73,0,0,1,1.49-.55,1.81,1.81,0,0,1,1.35.38,1.85,1.85,0,0,1,.75,1.21,3.72,3.72,0,0,1-.11,1.57,12.86,12.86,0,0,1-.6,1.7c-.26.59-.6,1.36-1,2.31l-8.5,19.35a16.44,16.44,0,0,1-1.6,3.07,3.93,3.93,0,0,1-1.66,1.29,1.55,1.55,0,0,1-1.6-.06,1.12,1.12,0,0,1-.45-.68,2,2,0,0,1,0-.91,8.35,8.35,0,0,1,.49-1.43Zm-.66-11.59,4.47,3.38,5.68-12.19Z"/><path class="cls-10" d="M150.76,877.75a8.13,8.13,0,0,1-2.89,4.35,8.57,8.57,0,0,1-5.22,1.64,16.51,16.51,0,0,1-6.93-1.62,18.27,18.27,0,0,1-7-5.08,13,13,0,0,1-2.43-4.83,8.48,8.48,0,0,1-.14-4.58,2.29,2.29,0,0,1,1.34-1.56,2.64,2.64,0,0,1,2.22.12,3.06,3.06,0,0,1,1.48,1.38,6.36,6.36,0,0,1,.62,2.38,15,15,0,0,0,.55,3,6.7,6.7,0,0,0,1.44,2.47,8.73,8.73,0,0,0,3.06,2.08,7.51,7.51,0,0,0,4.87.7,3.4,3.4,0,0,0,2.66-2.44,3.81,3.81,0,0,0-.22-2.86,7.68,7.68,0,0,0-2-2.5c-.88-.77-2.1-1.7-3.63-2.81a34.72,34.72,0,0,1-5-4.29,11.77,11.77,0,0,1-2.7-4.42,8.26,8.26,0,0,1,0-5,6.77,6.77,0,0,1,2.68-3.83,7.8,7.8,0,0,1,4.86-1.18,18.39,18.39,0,0,1,6.46,1.72,19.19,19.19,0,0,1,4.69,2.84,13.75,13.75,0,0,1,2.89,3.34,9.56,9.56,0,0,1,1.29,3.27,6.26,6.26,0,0,1-.09,2.75,2.6,2.6,0,0,1-1.37,1.64,2.47,2.47,0,0,1-2.22.05,2.76,2.76,0,0,1-1.47-1.24,8.18,8.18,0,0,1-.71-2.25,10.43,10.43,0,0,0-1.22-3.57,7.48,7.48,0,0,0-3.49-2.64,6.85,6.85,0,0,0-4.19-.68,2.65,2.65,0,0,0-2.21,1.85,2.94,2.94,0,0,0,0,1.81,5.66,5.66,0,0,0,1.05,1.77,11.32,11.32,0,0,0,1.56,1.54c.54.45,1.46,1.18,2.74,2.12,1.59,1.17,3.05,2.29,4.32,3.39a18.6,18.6,0,0,1,3.07,3.31,8.67,8.67,0,0,1,1.24,7.87Z"/><path class="cls-10" d="M168.38,892.16a16.83,16.83,0,0,1-4.76.79,12,12,0,0,1-4.62-1,9.88,9.88,0,0,1-3.65-2.46,7.93,7.93,0,0,1-1.9-3.4,6.59,6.59,0,0,1,0-3.58,5.2,5.2,0,0,1,2.65-3.35,7.31,7.31,0,0,1,4.76-.51l2.89.55c1.54.3,2.86.53,4,.7s2.32.32,3.64.45a6.35,6.35,0,0,0,0-3.65c-.34-.92-1.36-1.71-3.07-2.4a7.59,7.59,0,0,0-3.49-.72,4.83,4.83,0,0,0-2.43,1,14.24,14.24,0,0,1-1.59,1.13c-.29.17-.79.11-1.51-.19a3,3,0,0,1-1.5-1.31,2.27,2.27,0,0,1-.25-1.86,4.35,4.35,0,0,1,1.93-2.46,7.18,7.18,0,0,1,4-1,16.71,16.71,0,0,1,6,1.39,19.19,19.19,0,0,1,5.74,3.25,6.65,6.65,0,0,1,2.28,4,12.83,12.83,0,0,1-.58,5.41c-.39,1.33-.72,2.46-1,3.39l-.94,3.08a12,12,0,0,0-.43,3.54,10.65,10.65,0,0,1-.11,2.45,1.93,1.93,0,0,1-1.3,1.26,2.85,2.85,0,0,1-2.11,0,3.13,3.13,0,0,1-1.53-1.51A14.67,14.67,0,0,1,168.38,892.16Zm2-8.36a28.87,28.87,0,0,1-4-.5c-1.72-.3-2.91-.5-3.58-.6a4.57,4.57,0,0,0-2.05.22,2.2,2.2,0,0,0-1.41,1.6,3.31,3.31,0,0,0,.35,2.6,4.49,4.49,0,0,0,2.34,2,7.09,7.09,0,0,0,3.38.53,4.71,4.71,0,0,0,2.69-1.06,8.29,8.29,0,0,0,2-3.93Z"/><path class="cls-10" d="M191.7,873.19l-2.53,8.67a13.16,13.16,0,0,1,4.1-1.31,9.49,9.49,0,0,1,4.49.65,11,11,0,0,1,4.72,3.16,10.07,10.07,0,0,1,2.27,5.08,14.77,14.77,0,0,1-.54,6.46,16,16,0,0,1-2.06,4.49,10.93,10.93,0,0,1-3.05,3.05,8.62,8.62,0,0,1-3.84,1.34,9.62,9.62,0,0,1-4.28-.58,10.6,10.6,0,0,1-2.45-1.23,8.65,8.65,0,0,1-1.78-1.55,10.42,10.42,0,0,1-1.11-1.57c-.29-.51-.65-1.24-1.08-2.2-.06.23-.1.34-.16.56a3.22,3.22,0,0,1-1.5,2.13,2.64,2.64,0,0,1-2.24.08,2.92,2.92,0,0,1-1.73-1.56,3.87,3.87,0,0,1,0-2.7l7.23-24.77a3.9,3.9,0,0,1,1.47-2.34,2.45,2.45,0,0,1,2.25-.14,3,3,0,0,1,1.83,1.62A3.88,3.88,0,0,1,191.7,873.19Zm-4.64,17a8.32,8.32,0,0,0,.07,5.79,6,6,0,0,0,3.65,3.34,4.84,4.84,0,0,0,4.34-.49,7.76,7.76,0,0,0,3.15-4.77,10.82,10.82,0,0,0,.47-4.1,6.44,6.44,0,0,0-1.16-3.17,5.7,5.7,0,0,0-5.81-2.11,5.58,5.58,0,0,0-2.8,1.81A9.44,9.44,0,0,0,187.06,890.15Z"/><path class="cls-10" d="M216,884.58a3.44,3.44,0,0,1-1.89-1.44,2.79,2.79,0,0,1-.27-2.35,2.52,2.52,0,0,1,1.48-1.68,3.15,3.15,0,0,1,2.3-.08,3.5,3.5,0,0,1,1.82,1.39,2.68,2.68,0,0,1,.28,2.35,2.51,2.51,0,0,1-1.46,1.76A3.09,3.09,0,0,1,216,884.58Zm1.2,6.84c-1.92,6.56-2.87,9.84-4.79,16.39a3.56,3.56,0,0,1-1.59,2.3,2.91,2.91,0,0,1-2.39.16,3,3,0,0,1-1.83-1.61,3.89,3.89,0,0,1-.06-2.83l4.73-16.23a3.58,3.58,0,0,1,1.55-2.26,2.84,2.84,0,0,1,2.35-.14,3.17,3.17,0,0,1,1.88,1.57A3.5,3.5,0,0,1,217.15,891.42Z"/><path class="cls-10" d="M234.57,915.18l.16-.56a15.08,15.08,0,0,1-3,1.4,9,9,0,0,1-2.88.46,10.18,10.18,0,0,1-3.08-.51,9.47,9.47,0,0,1-3.67-2.12,9.89,9.89,0,0,1-2.41-3.47,12,12,0,0,1-.89-4.41,16,16,0,0,1,.68-4.9q1.56-5.33,5.12-7.41a9.46,9.46,0,0,1,8-.69,10.73,10.73,0,0,1,4.06,2.21,12.64,12.64,0,0,1,2.67,3.65l2.45-8.38a4.21,4.21,0,0,1,1.49-2.41,2.62,2.62,0,0,1,2.34-.26,2.82,2.82,0,0,1,1.83,1.46,3.7,3.7,0,0,1,0,2.64l-7.3,25a3.48,3.48,0,0,1-1.49,2.19,3,3,0,0,1-4-1.26A3.55,3.55,0,0,1,234.57,915.18Zm-9.2-12a9.85,9.85,0,0,0-.4,4.17,6,6,0,0,0,1.33,3.09,5.49,5.49,0,0,0,2.6,1.72,5.58,5.58,0,0,0,3.08.12,5.42,5.42,0,0,0,2.75-1.75,10.86,10.86,0,0,0,2.31-7.92,6.28,6.28,0,0,0-1.35-3.14,5.51,5.51,0,0,0-2.62-1.76,5.1,5.1,0,0,0-3.16,0,5.77,5.77,0,0,0-2.72,1.9A10,10,0,0,0,225.37,903.18Z"/><path class="cls-10" d="M261.57,923.23l.21-.73A13.82,13.82,0,0,1,258.9,924a8.82,8.82,0,0,1-2.95.56,11,11,0,0,1-3.31-.5,8.77,8.77,0,0,1-3.62-2,6.71,6.71,0,0,1-2-3.13,10.44,10.44,0,0,1,.41-5.53l3.28-11.24a3.68,3.68,0,0,1,1.55-2.3,2.89,2.89,0,0,1,2.37-.21,3,3,0,0,1,1.93,1.49,3.62,3.62,0,0,1,.09,2.78L254,913a14.16,14.16,0,0,0-.62,3.41,4.13,4.13,0,0,0,.64,2.47,3.87,3.87,0,0,0,2.23,1.47,5.34,5.34,0,0,0,3.09,0,5.2,5.2,0,0,0,2.59-1.67,17.53,17.53,0,0,0,2-5.13l2-6.9a3.68,3.68,0,0,1,1.57-2.3,3,3,0,0,1,2.41-.24,2.93,2.93,0,0,1,1.9,1.44,3.7,3.7,0,0,1,.06,2.77l-4.8,16.44a3.54,3.54,0,0,1-1.48,2.21,2.76,2.76,0,0,1-2.24.25,2.73,2.73,0,0,1-1.77-1.41A3.37,3.37,0,0,1,261.57,923.23Z"/><path class="cls-10" d="M280.51,923.07l-1.39,4.74a3.71,3.71,0,0,1-1.61,2.35,3.06,3.06,0,0,1-2.42.28,2.89,2.89,0,0,1-1.87-1.45,3.75,3.75,0,0,1-.08-2.81l4.61-15.79q1.13-3.82,4-3a2.54,2.54,0,0,1,1.89,1.48,4.87,4.87,0,0,1-.05,2.83,11,11,0,0,1,3-2,5,5,0,0,1,3.27-.09,8.34,8.34,0,0,1,3.41,1.86,2.72,2.72,0,0,1,1.09,2.84,2.4,2.4,0,0,1-1.26,1.52,2.56,2.56,0,0,1-1.83.24,7.64,7.64,0,0,1-1.48-.8,8,8,0,0,0-2.12-1,3.62,3.62,0,0,0-2.34.08,4.53,4.53,0,0,0-1.86,1.6,13.62,13.62,0,0,0-1.53,2.89A44.35,44.35,0,0,0,280.51,923.07Z"/><path class="cls-10" d="M302.4,910a3.22,3.22,0,0,1-1.93-1.28,2.5,2.5,0,0,1-.29-2.28,2.66,2.66,0,0,1,1.49-1.75,3.36,3.36,0,0,1,2.35-.24,3.26,3.26,0,0,1,1.86,1.24,2.48,2.48,0,0,1,.3,2.29,2.7,2.7,0,0,1-1.48,1.82A3.31,3.31,0,0,1,302.4,910Zm1.26,6.62c-1.92,6.56-2.87,9.84-4.79,16.4a3.78,3.78,0,0,1-1.61,2.36,3.1,3.1,0,0,1-2.43.31,2.75,2.75,0,0,1-1.88-1.44,3.66,3.66,0,0,1-.08-2.77c1.89-6.5,2.84-9.74,4.74-16.23a3.74,3.74,0,0,1,1.56-2.33,3,3,0,0,1,2.39-.29,2.9,2.9,0,0,1,1.93,1.41A3.22,3.22,0,0,1,303.66,916.58Z"/><path class="cls-10" d="M320.23,938.55a20.58,20.58,0,0,1-4.93,1.37,13.08,13.08,0,0,1-4.81-.32,9.09,9.09,0,0,1-3.81-1.88,6.35,6.35,0,0,1-2-3,5.85,5.85,0,0,1,0-3.44,6,6,0,0,1,2.72-3.57,8.53,8.53,0,0,1,4.94-1.13l3,.14c1.6.08,3,.13,4.13.15s2.41,0,3.78,0a5.79,5.79,0,0,0,0-3.53c-.37-.84-1.44-1.47-3.22-1.91a8.17,8.17,0,0,0-3.63-.24,6.08,6.08,0,0,0-2.51,1.31c-.79.67-1.33,1.1-1.63,1.3a2.09,2.09,0,0,1-1.58,0,2.61,2.61,0,0,1-1.57-1,1.92,1.92,0,0,1-.28-1.75,5,5,0,0,1,2-2.63,8.74,8.74,0,0,1,4.18-1.45,17.34,17.34,0,0,1,6.2.54,18.14,18.14,0,0,1,6,2.4,5.56,5.56,0,0,1,2.4,3.57,11.92,11.92,0,0,1-.55,5.3c-.38,1.33-.72,2.45-1,3.38s-.6,2-.94,3.09a10.78,10.78,0,0,0-.41,3.47,9.91,9.91,0,0,1-.09,2.37,2.26,2.26,0,0,1-1.34,1.38,3.19,3.19,0,0,1-2.18.24,2.7,2.7,0,0,1-1.6-1.26A12.29,12.29,0,0,1,320.23,938.55Zm2-8.31a33.57,33.57,0,0,1-4.13,0c-1.79-.07-3-.11-3.72-.11a5.29,5.29,0,0,0-2.13.48,2.54,2.54,0,0,0-1.44,1.73,2.78,2.78,0,0,0,.39,2.44,3.93,3.93,0,0,0,2.45,1.58,7.91,7.91,0,0,0,3.52.07,5.87,5.87,0,0,0,2.77-1.36,9.18,9.18,0,0,0,2.06-4.05Z"/><path class="cls-10" d="M366.5,943.68a7.15,7.15,0,0,1,2.52-2,6.06,6.06,0,0,1,3.09-.57,6.37,6.37,0,0,1,3.15,1.16,5.32,5.32,0,0,1,2.06,2.43,4.73,4.73,0,0,1,.23,2.85,6.36,6.36,0,0,1-1.27,2.61,6.56,6.56,0,0,1-3.13,2.18,16.43,16.43,0,0,1-4.55.64c-.05.83-.11,1.6-.16,2.33s-.1,1.4-.13,2,0,1.21,0,1.69c.33-.19.92-.56,1.76-1.12a10,10,0,0,1,2-1.1,1.4,1.4,0,0,1,1.93,1.28,2.07,2.07,0,0,1-.51,1.45,8.57,8.57,0,0,1-1.8,1.52,25.32,25.32,0,0,1-3.13,1.81c.05.5.15,1.28.29,2.32a11,11,0,0,1,.17,2.06,2,2,0,0,1-.5,1,2.56,2.56,0,0,1-1.45.94,1.74,1.74,0,0,1-1.41-.16,1.84,1.84,0,0,1-.74-1.16c-.12-.52-.31-1.72-.55-3.59a12.11,12.11,0,0,1-2.76.33,7.93,7.93,0,0,1-2.44-.38,9.15,9.15,0,0,1-2.34-1.17,7.13,7.13,0,0,1-2.25-2.34,6.06,6.06,0,0,1-.83-2.75,6.8,6.8,0,0,1,.42-2.75,8.54,8.54,0,0,1,1.38-2.44,9.06,9.06,0,0,1,1.87-1.76,8.26,8.26,0,0,1,2.1-1,10.26,10.26,0,0,1,2.37-.49,17.9,17.9,0,0,1,2.77-.06,18.88,18.88,0,0,1,.58-3.3A6.88,6.88,0,0,1,366.5,943.68Zm-2.15,9.11a10.24,10.24,0,0,0-3.17.43A4.79,4.79,0,0,0,359,954.8a4.66,4.66,0,0,0-.79,1.4,4.55,4.55,0,0,0-.26,1.55,3.3,3.3,0,0,0,.35,1.45,2.91,2.91,0,0,0,1,1.07,3.81,3.81,0,0,0,1.37.58,5.32,5.32,0,0,0,1.61.09,14.48,14.48,0,0,0,1.9-.32,33.74,33.74,0,0,1,0-3.61C364.13,955.87,364.22,954.46,364.35,952.79Zm4.37-3.07a15.92,15.92,0,0,0,3-.36,3.25,3.25,0,0,0,1.77-1.16,2.6,2.6,0,0,0,.66-1.84,1.93,1.93,0,0,0-.88-1.53,2.32,2.32,0,0,0-1.88-.32,2.93,2.93,0,0,0-1.71,1,3,3,0,0,0-.53,1.06,7.12,7.12,0,0,0-.27,1.33Q368.81,948.64,368.72,949.72Z"/><path class="cls-10" d="M436.64,945.34a9.56,9.56,0,0,1,.63,3.15,12.45,12.45,0,0,1-.49,3.93,11.44,11.44,0,0,1-2,4,11.75,11.75,0,0,1-3.93,3.19,14.92,14.92,0,0,1-3.56,1.36,9.13,9.13,0,0,1-3.32.16,9.41,9.41,0,0,1-3.25-1.1,13.87,13.87,0,0,1-2.81-2.08,16.63,16.63,0,0,1-2.42-2.92,21.94,21.94,0,0,1-1.95-3.71,21.44,21.44,0,0,1-1.66-6.39,15.77,15.77,0,0,1,.49-5.75,13.17,13.17,0,0,1,2.43-4.74,12.69,12.69,0,0,1,4-3.3,10.7,10.7,0,0,1,5.65-1.34,9.53,9.53,0,0,1,4.81,1.5,7.12,7.12,0,0,1,2.74,3.1,3,3,0,0,1,.12,2,2.14,2.14,0,0,1-1.09,1.47,1.83,1.83,0,0,1-1.58.22,6.81,6.81,0,0,1-1.75-1.21,7.92,7.92,0,0,0-3.48-1.92,5.14,5.14,0,0,0-3.53.62,6.76,6.76,0,0,0-3.6,5.07q-.66,3.52,1.35,8.35a16.23,16.23,0,0,0,3,4.95,6.42,6.42,0,0,0,3.52,2,5.83,5.83,0,0,0,3.75-.68,6.57,6.57,0,0,0,3-3,8.91,8.91,0,0,0,.68-4.64,7.44,7.44,0,0,1,0-2.17,2,2,0,0,1,1.16-1.45,2,2,0,0,1,1.75-.08A2.48,2.48,0,0,1,436.64,945.34Z"/><path class="cls-10" d="M454.33,945.82a17.45,17.45,0,0,1-2.17,3.8,9.4,9.4,0,0,1-3,2.48,6.15,6.15,0,0,1-3.29.78A5.05,5.05,0,0,1,443,951.8a6.13,6.13,0,0,1-1.9-2.53,6.51,6.51,0,0,1-.36-4.2,7.08,7.08,0,0,1,2.3-3.65l1.86-1.6c1-.84,1.84-1.58,2.53-2.22s1.44-1.35,2.23-2.15a5.87,5.87,0,0,0-1.94-2.61c-.68-.42-1.66-.29-3,.4a5.78,5.78,0,0,0-2.29,1.87,5.62,5.62,0,0,0-.76,2.4c-.1.94-.18,1.57-.25,1.89s-.38.62-.92.91a1.82,1.82,0,0,1-1.51.12,1.87,1.87,0,0,1-1.13-1.14,5.47,5.47,0,0,1-.28-3.07,7.64,7.64,0,0,1,1.67-3.45,12.4,12.4,0,0,1,4-3.11,11.91,11.91,0,0,1,4.88-1.6,4.45,4.45,0,0,1,3.39,1.3,12.94,12.94,0,0,1,2.6,4.23c.5,1.21.93,2.23,1.27,3.08s.73,1.79,1.15,2.81a11.7,11.7,0,0,0,1.67,2.81,9.93,9.93,0,0,1,1.25,1.81,2.36,2.36,0,0,1,0,1.77,2.48,2.48,0,0,1-1.17,1.41,1.93,1.93,0,0,1-1.64,0A10.83,10.83,0,0,1,454.33,945.82Zm-3.39-7.28a24.92,24.92,0,0,1-2.44,2.35c-1.1,1-1.85,1.63-2.26,2a4.2,4.2,0,0,0-1,1.56,3,3,0,0,0,1.68,3.69,2.7,2.7,0,0,0,2.31-.23,5.64,5.64,0,0,0,2.13-1.93,5.16,5.16,0,0,0,.89-2.58,10,10,0,0,0-1-4.15Z"/><path class="cls-10" d="M462.7,943.27,453.41,921a4.37,4.37,0,0,1-.39-2.64,2.36,2.36,0,0,1,1.25-1.63,2,2,0,0,1,1.93-.06,3.67,3.67,0,0,1,1.59,2l9.3,22.29a4.14,4.14,0,0,1,.36,2.67,2.51,2.51,0,0,1-1.27,1.62,1.94,1.94,0,0,1-1.91,0A3.8,3.8,0,0,1,462.7,943.27Z"/><path class="cls-10" d="M465.43,917.25a2.25,2.25,0,0,1-1.84.17,2.49,2.49,0,0,1-1.43-1.52,2.92,2.92,0,0,1-.08-2.15,2.61,2.61,0,0,1,1.26-1.52,2.21,2.21,0,0,1,1.78-.15,2.41,2.41,0,0,1,1.43,1.51,2.93,2.93,0,0,1,.13,2.2A2.53,2.53,0,0,1,465.43,917.25Zm4.39,4.18,6.2,14.84a4.17,4.17,0,0,1,.34,2.67,2.48,2.48,0,0,1-1.26,1.62,1.94,1.94,0,0,1-1.91,0,3.7,3.7,0,0,1-1.56-2l-6.14-14.7a4.18,4.18,0,0,1-.35-2.62,2.38,2.38,0,0,1,1.24-1.59,2,2,0,0,1,1.92-.06A3.23,3.23,0,0,1,469.82,921.43Z"/><path class="cls-10" d="M494.82,932.11l-.21-.51a14.61,14.61,0,0,1-.95,2.83,7.86,7.86,0,0,1-1.4,2.1,7.68,7.68,0,0,1-2,1.53,6.31,6.31,0,0,1-3.25.73,7,7,0,0,1-3.26-1,10.67,10.67,0,0,1-2.91-2.63,17.64,17.64,0,0,1-2.28-4,13.91,13.91,0,0,1-1.12-8.56,7.92,7.92,0,0,1,4.18-5.45,6.85,6.85,0,0,1,3.52-.9,9.13,9.13,0,0,1,3.53,1c-1.27-3-1.9-4.56-3.17-7.59A4.75,4.75,0,0,1,485,907a2.14,2.14,0,0,1,1.2-1.6,1.86,1.86,0,0,1,1.85-.05,3.73,3.73,0,0,1,1.46,1.91L499,930a4,4,0,0,1,.34,2.51,2.26,2.26,0,0,1-1.19,1.5,1.92,1.92,0,0,1-1.82,0A3.49,3.49,0,0,1,494.82,932.11ZM483,929.05a10,10,0,0,0,2,3.26,4.63,4.63,0,0,0,2.44,1.42,3.62,3.62,0,0,0,2.42-.35,4.35,4.35,0,0,0,1.83-1.8,5.87,5.87,0,0,0,.63-3,11,11,0,0,0-.95-3.93,9.76,9.76,0,0,0-2.05-3.24,5.06,5.06,0,0,0-2.49-1.46,3.62,3.62,0,0,0-2.46.33,4.09,4.09,0,0,0-1.82,1.92,6.18,6.18,0,0,0-.52,3.06A11.57,11.57,0,0,0,483,929.05Z"/><path class="cls-10" d="M514.59,924.21a16.7,16.7,0,0,1-2.2,3.74,9.2,9.2,0,0,1-3.05,2.42,6.2,6.2,0,0,1-3.31.74,5.15,5.15,0,0,1-2.87-1.11,6.16,6.16,0,0,1-1.9-2.54,6.45,6.45,0,0,1-.35-4.18,6.89,6.89,0,0,1,2.32-3.6c.25-.22.87-.74,1.87-1.57s1.85-1.55,2.55-2.17,1.46-1.32,2.25-2.1a5.94,5.94,0,0,0-1.95-2.63c-.68-.43-1.67-.31-3,.35a5.75,5.75,0,0,0-2.31,1.83,5.49,5.49,0,0,0-.77,2.38c-.1.93-.19,1.56-.26,1.87s-.38.62-.93.9a1.85,1.85,0,0,1-1.51.1,1.93,1.93,0,0,1-1.14-1.15,5.41,5.41,0,0,1-.27-3,7.31,7.31,0,0,1,1.69-3.42,12.09,12.09,0,0,1,4-3,11.8,11.8,0,0,1,4.92-1.51,4.54,4.54,0,0,1,3.42,1.35,12.84,12.84,0,0,1,2.6,4.24c.5,1.21.93,2.23,1.27,3.08s.73,1.79,1.15,2.81a12,12,0,0,0,1.67,2.82,11,11,0,0,1,1.26,1.81,2.29,2.29,0,0,1,0,1.76,2.44,2.44,0,0,1-1.18,1.38,2,2,0,0,1-1.66-.07A10.5,10.5,0,0,1,514.59,924.21Zm-3.4-7.29a22.84,22.84,0,0,1-2.46,2.3q-1.67,1.41-2.28,2a4.13,4.13,0,0,0-1,1.54,2.73,2.73,0,0,0,.09,2.09,2.8,2.8,0,0,0,1.59,1.59,2.73,2.73,0,0,0,2.33-.19,5.56,5.56,0,0,0,2.14-1.89,5.06,5.06,0,0,0,.91-2.54,9.94,9.94,0,0,0-1-4.14Z"/><path class="cls-10" d="M537.43,920.35l-.22-.51a14.37,14.37,0,0,1-1,2.79,7.31,7.31,0,0,1-3.48,3.52,6.44,6.44,0,0,1-3.28.67,7.34,7.34,0,0,1-3.28-1.07,10.72,10.72,0,0,1-2.92-2.67,16.78,16.78,0,0,1-2.28-4q-2-4.82-1.1-8.51a7.67,7.67,0,0,1,4.22-5.33,7,7,0,0,1,3.56-.82,9.52,9.52,0,0,1,3.56,1.1L528.08,898a4.71,4.71,0,0,1-.45-2.65,2.09,2.09,0,0,1,1.22-1.56,1.91,1.91,0,0,1,1.87,0,3.74,3.74,0,0,1,1.46,1.93c3.78,9.07,5.68,13.6,9.46,22.66a3.82,3.82,0,0,1,.33,2.48,2.21,2.21,0,0,1-1.21,1.47,2,2,0,0,1-1.83,0A3.48,3.48,0,0,1,537.43,920.35Zm-11.9-3.28a10.26,10.26,0,0,0,2.05,3.28,4.84,4.84,0,0,0,2.46,1.46,3.79,3.79,0,0,0,2.44-.3,4.27,4.27,0,0,0,1.85-1.75,5.61,5.61,0,0,0,.64-2.92,10.78,10.78,0,0,0-.94-3.92,9.92,9.92,0,0,0-2-3.25,5.21,5.21,0,0,0-2.51-1.5,3.65,3.65,0,0,0-2.48.27,4,4,0,0,0-1.85,1.87,6.17,6.17,0,0,0-.53,3A11.49,11.49,0,0,0,525.53,917.07Z"/><path class="cls-10" d="M552.6,891.89l3.3,7.91c4.22-1.93,6.34-2.89,10.58-4.77l-3.3-7.9a4.45,4.45,0,0,1-.39-2.84,2.52,2.52,0,0,1,3.55-1.58,4.21,4.21,0,0,1,1.75,2.25c3.63,8.7,5.45,13,9.07,21.74a4.36,4.36,0,0,1,.38,2.86,2.47,2.47,0,0,1-1.44,1.63,2.26,2.26,0,0,1-2.13-.07,4.34,4.34,0,0,1-1.72-2.26c-1.55-3.71-2.33-5.56-3.87-9.27-4.24,1.88-6.36,2.83-10.58,4.77l3.87,9.27a4.42,4.42,0,0,1,.38,2.88,2.52,2.52,0,0,1-1.42,1.66,2.24,2.24,0,0,1-2.12,0,4.36,4.36,0,0,1-1.72-2.25l-9.07-21.73a4.57,4.57,0,0,1-.41-2.85,2.44,2.44,0,0,1,1.41-1.66,2.34,2.34,0,0,1,2.14,0A4.15,4.15,0,0,1,552.6,891.89Z"/><path class="cls-10" d="M594.18,900.07l-.28-.66a11.61,11.61,0,0,1-.9,2.67,6.76,6.76,0,0,1-1.48,2,8.19,8.19,0,0,1-2.28,1.41A6.29,6.29,0,0,1,586,906a5.68,5.68,0,0,1-2.9-1.27,11.2,11.2,0,0,1-2.82-4.34L576,890.18a3.94,3.94,0,0,1-.35-2.57,2.19,2.19,0,0,1,1.31-1.46,2.24,2.24,0,0,1,2,.06,3.94,3.94,0,0,1,1.59,2l3.43,8.23a15.56,15.56,0,0,0,1.52,2.89,4,4,0,0,0,1.75,1.49,2.73,2.73,0,0,0,2.16-.1,3.82,3.82,0,0,0,1.85-1.67,4.73,4.73,0,0,0,.65-2.63,19.24,19.24,0,0,0-1.61-4.94l-2.61-6.25a3.86,3.86,0,0,1-.32-2.56,2.32,2.32,0,0,1,3.29-1.36,4,4,0,0,1,1.59,2.06c2.48,6,3.72,8.93,6.21,14.89a3.7,3.7,0,0,1,.32,2.44,2,2,0,0,1-1.22,1.36,2.1,2.1,0,0,1-1.87-.13A3.61,3.61,0,0,1,594.18,900.07Z"/><path class="cls-10" d="M615.38,883.43l2.85,6.83a4,4,0,0,1,.35,2.67,2.19,2.19,0,0,1-1.41,1.46,2.3,2.3,0,0,1-2-.16,4.32,4.32,0,0,1-1.66-2.19l-3.42-8.18a31.31,31.31,0,0,0-1.38-3,3.82,3.82,0,0,0-1.37-1.51,2.13,2.13,0,0,0-1.95-.06,3,3,0,0,0-2.25,2.88,14.51,14.51,0,0,0,1.35,5.25l2.9,6.95a4,4,0,0,1,.36,2.67,2.17,2.17,0,0,1-1.37,1.49,2.32,2.32,0,0,1-2.05-.15,4.16,4.16,0,0,1-1.67-2.15l-6.13-14.7a3.76,3.76,0,0,1-.32-2.44,2,2,0,0,1,1.25-1.37,2.23,2.23,0,0,1,1.87.08,3.19,3.19,0,0,1,1.45,1.7l.2.49a8.57,8.57,0,0,1,1.59-3.35,6.38,6.38,0,0,1,2.72-1.91,6,6,0,0,1,3.32-.37,6.52,6.52,0,0,1,3,1.56,8.43,8.43,0,0,1,1.54-3.27,6,6,0,0,1,2.66-1.85,6.78,6.78,0,0,1,3.63-.35,5.87,5.87,0,0,1,3.06,1.64,13.65,13.65,0,0,1,2.43,4.17l4.18,10a4,4,0,0,1,.35,2.66,2.16,2.16,0,0,1-1.42,1.43,2.39,2.39,0,0,1-2.08-.2,4.3,4.3,0,0,1-1.68-2.18l-3.6-8.63a22,22,0,0,0-1.24-2.61,3.61,3.61,0,0,0-1.39-1.43,2.3,2.3,0,0,0-2-.06,3,3,0,0,0-1.49,1.24,3.93,3.93,0,0,0-.61,2.09A14.91,14.91,0,0,0,615.38,883.43Z"/><path class="cls-10" d="M643.54,879a13.78,13.78,0,0,1-2.4,3.24,8.6,8.6,0,0,1-3.28,1.9,6.8,6.8,0,0,1-3.49.29,6.41,6.41,0,0,1-3-1.4,6.86,6.86,0,0,1-2-2.65,5.5,5.5,0,0,1,2.24-7.14c.26-.18.93-.59,2-1.25s2-1.23,2.74-1.72,1.56-1.06,2.42-1.7a6.73,6.73,0,0,0-2-2.74,3.55,3.55,0,0,0-3.15-.05,5.18,5.18,0,0,0-2.47,1.43,4.38,4.38,0,0,0-.86,2.16c-.13.87-.23,1.45-.31,1.74s-.42.54-1,.74a2.12,2.12,0,0,1-1.6-.09,2.19,2.19,0,0,1-1.16-1.23,4.76,4.76,0,0,1-.23-2.93,6,6,0,0,1,1.85-3,11.16,11.16,0,0,1,4.29-2.37,12.82,12.82,0,0,1,5.22-.78,5.77,5.77,0,0,1,3.58,1.74,14,14,0,0,1,2.65,4.36l1.27,3.07,1.14,2.82a12.83,12.83,0,0,0,1.71,2.88,11.44,11.44,0,0,1,1.28,1.88,2,2,0,0,1-.08,1.66,2.07,2.07,0,0,1-1.28,1.13,2.33,2.33,0,0,1-1.75-.29A13.07,13.07,0,0,1,643.54,879Zm-3.42-7.34a21.56,21.56,0,0,1-2.65,1.85c-1.18.74-2,1.27-2.44,1.58a3.41,3.41,0,0,0-1.1,1.33,2.36,2.36,0,0,0,.05,2,3.27,3.27,0,0,0,4.1,1.83,5,5,0,0,0,2.29-1.52,4,4,0,0,0,1-2.28,9.27,9.27,0,0,0-1-4Z"/><path class="cls-10" d="M648.55,857.6l.25.62a7.81,7.81,0,0,1,1.66-3.43,6.42,6.42,0,0,1,3.1-1.81,7.16,7.16,0,0,1,3.76-.06,7.06,7.06,0,0,1,3.28,1.9,7.66,7.66,0,0,1,1.46,1.87,25.07,25.07,0,0,1,1.3,2.74l4,9.57a3.62,3.62,0,0,1,.32,2.51,1.9,1.9,0,0,1-1.39,1.25,2.5,2.5,0,0,1-2.08-.33,4.42,4.42,0,0,1-1.63-2.13L659,861.74a10.77,10.77,0,0,0-2.28-3.71,3.1,3.1,0,0,0-3.18-.61,3.4,3.4,0,0,0-2,1.49,4.31,4.31,0,0,0-.6,2.7,18.81,18.81,0,0,0,1.44,4.39l2.69,6.44a3.64,3.64,0,0,1,.31,2.54,2,2,0,0,1-1.41,1.29,2.39,2.39,0,0,1-2-.3,4.3,4.3,0,0,1-1.63-2.12L644.11,859a3.6,3.6,0,0,1-.32-2.37,1.82,1.82,0,0,1,1.32-1.21,2.38,2.38,0,0,1,1.27,0,2.87,2.87,0,0,1,1.21.73A4.26,4.26,0,0,1,648.55,857.6Z"/><path class="cls-10" d="M680.25,858.55a12,12,0,0,1-2.51,3,8.12,8.12,0,0,1-3.39,1.62,7.44,7.44,0,0,1-3.6,0,7.3,7.3,0,0,1-5-4.26,5.29,5.29,0,0,1-.24-3.92,5.18,5.18,0,0,1,2.62-2.88c.28-.15,1-.51,2.08-1.07s2.06-1.06,2.84-1.48,1.62-.92,2.51-1.47a7.19,7.19,0,0,0-2-2.81,3.9,3.9,0,0,0-3.24-.27,5,5,0,0,0-2.56,1.22,3.89,3.89,0,0,0-.91,2c-.14.84-.26,1.4-.34,1.68s-.43.49-1,.64a2.31,2.31,0,0,1-1.64-.19,2.37,2.37,0,0,1-1.18-1.27,4.46,4.46,0,0,1-.2-2.87,5.44,5.44,0,0,1,1.94-2.82,10.85,10.85,0,0,1,4.44-2,13.66,13.66,0,0,1,5.38-.38,6.46,6.46,0,0,1,3.67,1.94,14.31,14.31,0,0,1,2.67,4.42c.51,1.21.93,2.23,1.28,3.07s.72,1.79,1.14,2.81a12.58,12.58,0,0,0,1.72,2.92,13.26,13.26,0,0,1,1.3,1.92,1.78,1.78,0,0,1-.11,1.6,2,2,0,0,1-1.33,1,2.6,2.6,0,0,1-1.8-.41A14.78,14.78,0,0,1,680.25,858.55Zm-3.42-7.36a20.34,20.34,0,0,1-2.75,1.61c-1.23.63-2.08,1.09-2.54,1.36a3.14,3.14,0,0,0-1.14,1.22,2.12,2.12,0,0,0,0,1.93,3.58,3.58,0,0,0,4.19,2.06,4.91,4.91,0,0,0,2.38-1.3,3.69,3.69,0,0,0,1.08-2.15,9,9,0,0,0-.94-4Z"/></svg>